<?xml version="1.0" encoding="iso-8859-1"?>
<!-- Uploaded to: SVG Repo, www.svgrepo.com, Generator: SVG Repo Mixer Tools -->
<svg fill="#000000" height="800px" width="800px" version="1.1" id="Layer_1" xmlns="http://www.w3.org/2000/svg" xmlns:xlink="http://www.w3.org/1999/xlink" 
	 viewBox="0 0 512 512" xml:space="preserve">
<g>
	<g>
		<g>
			<path d="M256,0C114.848,0,0,114.848,0,256s114.848,256,256,256s256-114.848,256-256S397.152,0,256,0z M256,490.667
				C126.603,490.667,21.333,385.397,21.333,256S126.603,21.333,256,21.333S490.667,126.603,490.667,256S385.397,490.667,256,490.667
				z"/>
			<path d="M359.317,344.245l-87.787-82.912l87.787-82.912c4.286-4.042,4.483-10.793,0.441-15.078
				c-0.001-0.001-0.003-0.003-0.004-0.004c-4.042-4.286-10.793-4.483-15.078-0.441c-0.001,0.001-0.003,0.003-0.004,0.004
				L256,246.667l-88.672-83.755c-4.227-4.103-10.98-4.003-15.083,0.224c-4.103,4.227-4.003,10.98,0.224,15.083
				c0.07,0.068,0.141,0.135,0.214,0.202l87.787,82.912l-87.787,82.912c-4.338,3.985-4.624,10.733-0.639,15.071
				s10.733,4.624,15.071,0.639c0.072-0.066,0.143-0.133,0.213-0.201L256,276l88.672,83.755c4.227,4.103,10.98,4.002,15.083-0.226
				c4.103-4.227,4.002-10.98-0.226-15.083C359.46,344.378,359.389,344.311,359.317,344.245z"/>
		</g>
	</g>
</g>
</svg>