<?xml version="1.0" ?>
<svg width="800px" height="800px" viewBox="0 0 24 24" fill="none" xmlns="http://www.w3.org/2000/svg"><path d="M17 10C17 11.7279 15.0424 14.9907 13.577 17.3543C12.8967 18.4514 12.5566 19 12 19C11.4434 19 11.1033 18.4514 10.423 17.3543C8.95763 14.9907 7 11.7279 7 10C7 7.23858 9.23858 5 12 5C14.7614 5 17 7.23858 17 10Z" stroke="#464455" stroke-linecap="round" stroke-linejoin="round"/><path d="M14.5 10C14.5 11.3807 13.3807 12.5 12 12.5C10.6193 12.5 9.5 11.3807 9.5 10C9.5 8.61929 10.6193 7.5 12 7.5C13.3807 7.5 14.5 8.61929 14.5 10Z" stroke="#464455" stroke-linecap="round" stroke-linejoin="round"/></svg>
