<?xml version="1.0" encoding="UTF-8" standalone="no"?>
<!-- Uploaded to: SVG Repo, www.svgrepo.com, Generator: SVG Repo Mixer Tools -->

<svg
   height="800px"
   width="800px"
   version="1.1"
   id="Layer_1"
   viewBox="0 0 511.999 511.999"
   xml:space="preserve"
   sodipodi:docname="translate-language_v2.svg"
   inkscape:version="1.3.2 (1:1.3.2+202311252150+091e20ef0f)"
   xmlns:inkscape="http://www.inkscape.org/namespaces/inkscape"
   xmlns:sodipodi="http://sodipodi.sourceforge.net/DTD/sodipodi-0.dtd"
   xmlns="http://www.w3.org/2000/svg"
   xmlns:svg="http://www.w3.org/2000/svg"><defs
   id="defs5" /><sodipodi:namedview
   id="namedview5"
   pagecolor="#ffffff"
   bordercolor="#000000"
   borderopacity="0.25"
   inkscape:showpageshadow="2"
   inkscape:pageopacity="0.0"
   inkscape:pagecheckerboard="0"
   inkscape:deskcolor="#d1d1d1"
   inkscape:zoom="0.92625"
   inkscape:cx="316.8691"
   inkscape:cy="400"
   inkscape:window-width="1920"
   inkscape:window-height="965"
   inkscape:window-x="0"
   inkscape:window-y="0"
   inkscape:window-maximized="1"
   inkscape:current-layer="Layer_1" />
<path
   style="fill:#B8C9D9;"
   d="M461.909,133.563H320.778c-4.986,0-9.706,2.226-12.878,6.077c-3.172,3.84-4.452,8.904-3.506,13.79  l37.108,191.607H190.331c-5.009,0-9.739,2.237-12.922,6.111c-3.172,3.862-4.43,8.96-3.45,13.857l26.713,133.563  c1.625,8.114,8.515,13.111,15.772,13.423h245.466c27.614,0,50.086-22.472,50.086-50.086V183.649  C511.995,156.035,489.523,133.563,461.909,133.563z"
   id="path1" />
<path
   style="fill:#E6F3FF;"
   d="M461.909,283.821h-50.086v-16.695c0-9.22-7.475-16.695-16.695-16.695  c-9.22,0-16.695,7.475-16.695,16.695v16.695h-50.086c-9.22,0-16.695,7.475-16.695,16.695s7.475,16.695,16.695,16.695h17.982  c3.195,19.862,12.261,34.916,25.553,50.151c-7.137,6.956-14.031,13.602-21.95,21.521c-6.52,6.519-6.52,17.09,0,23.611  c6.519,6.52,17.091,6.52,23.611,0c7.794-7.793,14.674-14.425,21.586-21.163c6.902,6.729,13.789,13.368,21.586,21.163  c6.519,6.52,17.09,6.521,23.611,0c6.52-6.52,6.52-17.091,0-23.611c-7.914-7.914-14.802-14.555-21.95-21.521  c13.293-15.234,22.357-30.288,25.553-50.151h17.982c9.22,0,16.695-7.475,16.695-16.695S471.129,283.821,461.909,283.821z   M395.128,343.229c-7.323-8.736-12.152-16.753-14.652-26.017h29.303C407.279,326.476,402.449,334.494,395.128,343.229z"
   id="path2" />
<path
   style="fill:#2860CC;"
   d="M377.286,355.656c-2.504-6.4-8.682-10.618-15.549-10.618H190.331c-5.009,0-9.739,2.237-12.922,6.111  c-3.172,3.862-4.43,8.96-3.45,13.857l26.713,133.563c1.625,8.114,8.515,13.111,15.772,13.423c0.479,0.011,0.957,0.011,1.436,0  c3.706-0.167,7.413-1.581,10.496-4.419l144.693-133.563C378.121,369.346,379.79,362.056,377.286,355.656z"
   id="path3" />
<path
   style="fill:#167ee6"
   d="M 361.8146,379.09779 H 50.167598 c -27.619,0 -50.08600031,-22.467 -50.08600031,-50.086 V 50.755786 c 0,-27.618 22.46800031,-50.08599986 50.08600031,-50.08599986 H 295.0326 c 8,0 14.869,5.67399996 16.391,13.52099986 l 66.781,345.037004 c 0.946,4.892 -0.337,9.956 -3.51,13.794 -3.174,3.848 -7.891,6.076 -12.88,6.076 z"
   id="path4" />
<path
   style="fill:#e6f3ff;stroke-width:1.14296"
   d="m 177.27697,255.996 c -42.50248,0 -77.09997,-33.9082 -77.09997,-75.5639 0,-41.6557 34.59749,-75.5639 77.09997,-75.5639 10.42762,0 20.55506,2.02881 30.04175,5.97668 9.78802,4.0961 14.34375,15.20081 10.16439,24.79495 -4.17936,9.5568 -15.47287,14.05798 -25.29899,9.96189 -4.66887,-1.9564 -9.71297,-2.95213 -14.90831,-2.95213 -21.27086,0 -38.55056,16.93543 -38.55056,37.78251 0,20.84709 17.2797,37.78252 38.55056,37.78252 14.23061,0 26.69134,-7.60041 33.39217,-18.8907 h -14.11746 c -10.65391,0 -19.27471,-8.44904 -19.27471,-18.89069 0,-10.44164 8.6208,-18.89069 19.27471,-18.89069 h 38.55056 c 10.6539,0 19.2747,8.44905 19.2747,18.89069 0.001,41.65344 -34.59633,75.56277 -77.09881,75.56277 z"
   id="path5" />
</svg>
